<svg width="100" height="100" viewBox="0 0 100 100" fill="none" xmlns="http://www.w3.org/2000/svg">
<circle cx="50" cy="50" r="50" fill="white" fill-opacity="0.7"/>
<g clip-path="url(#clip0_449_1213)">
<path d="M50.0545 33.8524C52.3519 33.8524 54.2143 31.99 54.2143 29.6926C54.2143 27.3952 52.3519 25.5328 50.0545 25.5328C47.7571 25.5328 45.8947 27.3952 45.8947 29.6926C45.8947 31.99 47.7571 33.8524 50.0545 33.8524Z" stroke="#F68220" stroke-miterlimit="10"/>
<path d="M34.4383 33.4587L46.3053 35.7944C48.7789 36.2824 51.3267 36.2824 53.8037 35.7944L65.0884 33.5799C66.226 33.3577 67.34 34.0611 67.6294 35.1819C67.9424 36.3968 67.1717 37.6219 65.9432 37.8709L55.0624 40.0754C54.7764 40.1326 54.5711 40.3816 54.5711 40.6744L54.5307 51.4274C54.5307 51.5923 54.5408 51.7572 54.5576 51.9187L56.6947 70.5269C56.8293 71.6913 56.0216 72.7515 54.8639 72.9332C53.6321 73.1284 52.4844 72.2534 52.3498 71.0115L50.7343 56.2738C50.6973 55.9204 50.4045 55.6511 50.0511 55.6343L49.4016 55.604C49.0246 55.5872 48.7015 55.8632 48.6544 56.2367L46.8135 71.3716C46.6687 72.5597 45.5648 73.391 44.3835 73.2025C43.2594 73.0207 42.482 71.9842 42.6234 70.8567L44.9321 52.3159C44.9523 52.1442 44.9658 51.9726 44.9658 51.8009V40.4523C44.9658 40.1662 44.7672 39.9172 44.4845 39.8532L33.1022 37.3257C32.1296 37.1103 31.5238 36.1343 31.7594 35.165C32.0522 33.9703 33.2335 33.213 34.4417 33.452L34.4383 33.4587Z" stroke="#666666" stroke-miterlimit="10"/>
</g>
<defs>
<clipPath id="clip0_449_1213">
<rect width="37.674" height="49.3827" fill="white" transform="translate(30.8641 24.6914)"/>
</clipPath>
</defs>
</svg>
