<svg width="100" height="100" viewBox="0 0 100 100" fill="none" xmlns="http://www.w3.org/2000/svg">
<ellipse cx="49.9985" cy="50" rx="49.9985" ry="50" fill="white" fill-opacity="0.7"/>
<g clip-path="url(#clip0_449_1164)">
<path d="M50.9057 74.4706C64.5623 74.4706 75.6331 63.7918 75.6331 50.6189C75.6331 37.446 64.5623 26.7673 50.9057 26.7673C37.2492 26.7673 26.1783 37.446 26.1783 50.6189C26.1783 63.7918 37.2492 74.4706 50.9057 74.4706Z" stroke="#666666" stroke-miterlimit="10"/>
<path d="M38.787 44.7831C39.8705 36.0663 43.404 28.9852 47.9692 26.7673" stroke="#666666" stroke-miterlimit="10"/>
<path d="M63.6007 56.8587C62.1031 67.0125 57.1411 74.4672 51.2508 74.4672C45.3605 74.4672 40.3364 66.9149 38.8733 56.6601" stroke="#666666" stroke-miterlimit="10"/>
<path d="M55.3571 27.1509C59.4047 29.8266 62.6241 36.6048 63.6904 44.6686" stroke="#666666" stroke-miterlimit="10"/>
<path d="M72.2239 38.5198H29.4392" stroke="#666666" stroke-miterlimit="10"/>
<path d="M69.6151 50.619H75.6365" stroke="#666666" stroke-miterlimit="10"/>
<path d="M26.1783 50.619H32.4447" stroke="#666666" stroke-miterlimit="10"/>
<path d="M72.2239 62.7147H29.4392" stroke="#666666" stroke-miterlimit="10"/>
<path d="M51.2507 44.7831V26.7673" stroke="#666666" stroke-miterlimit="10"/>
<path d="M51.2507 74.4672V57.0135" stroke="#666666" stroke-miterlimit="10"/>
<path d="M65.2708 45.0557H36.9547C34.7135 45.0557 32.8967 46.8277 32.8967 49.0136V52.3253C32.8967 54.5111 34.7135 56.2831 36.9547 56.2831H65.2708C67.5119 56.2831 69.3287 54.5111 69.3287 52.3253V49.0136C69.3287 46.8277 67.5119 45.0557 65.2708 45.0557Z" stroke="#F68220" stroke-miterlimit="10"/>
<path d="M42.4985 53.4392H41.3441L39.912 47.7333H41.049L41.6045 50.3238C41.7521 51.018 41.891 51.746 41.9864 52.3132H42.0038C42.0993 51.7122 42.2642 51.0349 42.4291 50.3153L43.0627 47.7333H44.1824L44.7639 50.3577C44.9115 51.0349 45.033 51.6698 45.1198 52.2878H45.1372C45.2413 51.6614 45.3802 51.0095 45.5364 50.3153L46.144 47.7333H47.229L45.6579 53.4392H44.5122L43.9046 50.7556C43.7571 50.1037 43.6529 49.5619 43.5835 48.9439H43.5661C43.462 49.5534 43.3491 50.1037 43.1755 50.7556L42.4985 53.4392Z" fill="#F68220"/>
<path d="M50.1272 53.4392H48.9728L47.5406 47.7333H48.6776L49.2331 50.3238C49.3807 51.018 49.5196 51.746 49.6151 52.3132H49.6324C49.7279 51.7122 49.8928 51.0349 50.0577 50.3153L50.6913 47.7333H51.811L52.3925 50.3577C52.5401 51.0349 52.6616 51.6698 52.7484 52.2878H52.7658C52.8699 51.6614 53.0088 51.0095 53.165 50.3153L53.7726 47.7333H54.8576L53.2866 53.4392H52.1408L51.5333 50.7556C51.3857 50.1037 51.2815 49.5619 51.2121 48.9439H51.1948C51.0906 49.5534 50.9778 50.1037 50.8042 50.7556L50.1272 53.4392Z" fill="#F68220"/>
<path d="M57.7558 53.4392H56.6014L55.1692 47.7333H56.3063L56.8618 50.3238C57.0093 51.018 57.1482 51.746 57.2437 52.3132H57.261C57.3565 51.7122 57.5214 51.0349 57.6863 50.3153L58.32 47.7333H59.4396L60.0212 50.3577C60.1687 51.0349 60.2902 51.6698 60.377 52.2878H60.3944C60.4985 51.6614 60.6374 51.0095 60.7937 50.3153L61.4012 47.7333H62.4862L60.9152 53.4392H59.7695L59.1619 50.7556C59.0143 50.1037 58.9102 49.5619 58.8407 48.9439H58.8234C58.7192 49.5534 58.6064 50.1037 58.4328 50.7556L57.7558 53.4392Z" fill="#F68220"/>
</g>
<defs>
<clipPath id="clip0_449_1164">
<rect width="51.1835" height="49.3827" fill="white" transform="translate(25.3157 25.9259)"/>
</clipPath>
</defs>
</svg>
