<svg width="100" height="100" viewBox="0 0 100 100" fill="none" xmlns="http://www.w3.org/2000/svg">
<circle cx="50" cy="50" r="50" fill="white" fill-opacity="0.7"/>
<g clip-path="url(#clip0_449_1179)">
<path d="M55.2431 26.7673H39.0044C36.3371 26.7673 34.1748 28.9295 34.1748 31.5968V69.6377C34.1748 72.305 36.3371 74.4672 39.0044 74.4672H55.2431C57.9104 74.4672 60.0727 72.305 60.0727 69.6377V31.5968C60.0727 28.9295 57.9104 26.7673 55.2431 26.7673Z" stroke="#666666" stroke-miterlimit="10"/>
<path d="M41.6395 31.3377H38.7384C38.2235 31.3377 37.8062 31.7551 37.8062 32.27V35.1711C37.8062 35.6859 38.2235 36.1033 38.7384 36.1033H41.6395C42.1544 36.1033 42.5718 35.6859 42.5718 35.1711V32.27C42.5718 31.7551 42.1544 31.3377 41.6395 31.3377Z" stroke="#666666" stroke-miterlimit="10"/>
<path d="M48.788 31.3377H45.8868C45.372 31.3377 44.9546 31.7551 44.9546 32.27V35.1711C44.9546 35.6859 45.372 36.1033 45.8868 36.1033H48.788C49.3028 36.1033 49.7202 35.6859 49.7202 35.1711V32.27C49.7202 31.7551 49.3028 31.3377 48.788 31.3377Z" stroke="#666666" stroke-miterlimit="10"/>
<path d="M55.8153 31.3377H52.9142C52.3993 31.3377 51.9819 31.7551 51.9819 32.27V35.1711C51.9819 35.6859 52.3993 36.1033 52.9142 36.1033H55.8153C56.3302 36.1033 56.7476 35.6859 56.7476 35.1711V32.27C56.7476 31.7551 56.3302 31.3377 55.8153 31.3377Z" stroke="#666666" stroke-miterlimit="10"/>
<path d="M41.6395 39.1761H38.7384C38.2235 39.1761 37.8062 39.5935 37.8062 40.1083V43.0094C37.8062 43.5243 38.2235 43.9417 38.7384 43.9417H41.6395C42.1544 43.9417 42.5718 43.5243 42.5718 43.0094V40.1083C42.5718 39.5935 42.1544 39.1761 41.6395 39.1761Z" stroke="#666666" stroke-miterlimit="10"/>
<path d="M48.788 39.1761H45.8868C45.372 39.1761 44.9546 39.5935 44.9546 40.1083V43.0094C44.9546 43.5243 45.372 43.9417 45.8868 43.9417H48.788C49.3028 43.9417 49.7202 43.5243 49.7202 43.0094V40.1083C49.7202 39.5935 49.3028 39.1761 48.788 39.1761Z" stroke="#666666" stroke-miterlimit="10"/>
<path d="M55.8153 39.1761H52.9142C52.3993 39.1761 51.9819 39.5935 51.9819 40.1083V43.0094C51.9819 43.5243 52.3993 43.9417 52.9142 43.9417H55.8153C56.3302 43.9417 56.7476 43.5243 56.7476 43.0094V40.1083C56.7476 39.5935 56.3302 39.1761 55.8153 39.1761Z" stroke="#666666" stroke-miterlimit="10"/>
<path d="M60.0726 32.6671H62.9771C63.2733 32.6671 63.5156 32.9094 63.5156 33.2056V36.6889C63.5156 36.9279 63.6704 37.1366 63.8959 37.2039C64.6868 37.4428 66.5042 38.0419 67.4398 38.7554C67.6519 38.9169 67.948 38.89 68.1365 38.7049L70.6337 36.2413C70.8458 36.0327 71.1823 36.0327 71.3944 36.2413L74.8171 39.6641C75.0258 39.8728 75.0292 40.2127 74.8171 40.4247L72.2694 43.0027C72.1079 43.1676 72.0675 43.4167 72.1718 43.6253C72.5588 44.386 73.4776 46.2303 73.8478 47.2601C73.9253 47.4755 74.1272 47.6236 74.356 47.6236H77.8495C78.1457 47.6236 78.388 47.8659 78.388 48.1621V53.0657C78.388 53.3619 78.1457 53.6042 77.8495 53.6042H74.2046C73.9656 53.6042 73.7536 53.7624 73.6863 53.9912C73.4507 54.799 72.8718 56.65 72.2997 57.4578C72.1482 57.6732 72.1752 57.966 72.3636 58.1477L74.8138 60.5675C75.0224 60.7728 75.0292 61.1094 74.8272 61.3214L71.317 65.0336C71.1049 65.2557 70.7515 65.2591 70.5361 65.037L68.0894 62.4926C67.9245 62.321 67.6721 62.2772 67.46 62.3849C66.6893 62.772 64.8517 63.6638 63.9262 63.8826C63.6805 63.9398 63.5089 64.1552 63.5089 64.4076V68.352H60.0659" stroke="#F68220" stroke-miterlimit="10"/>
<path d="M60.0726 42.2152C60.0726 42.2152 68.4327 42.1748 68.8433 50.5146C69.2539 58.8544 60.0726 58.814 60.0726 58.814" stroke="#F68220" stroke-miterlimit="10"/>
<path d="M48.4784 70.4117H46.0182" stroke="#666666" stroke-miterlimit="10"/>
<path d="M60.0727 66.5582H34.1748" stroke="#666666" stroke-miterlimit="10"/>
</g>
<defs>
<clipPath id="clip0_449_1179">
<rect width="45.8994" height="49.3827" fill="white" transform="translate(33.3334 25.9259)"/>
</clipPath>
</defs>
</svg>
