<svg width="100" height="100" viewBox="0 0 100 100" fill="none" xmlns="http://www.w3.org/2000/svg">
<circle cx="50" cy="50" r="50" fill="white" fill-opacity="0.7"/>
<g clip-path="url(#clip0_449_1152)">
<path d="M57.5145 30.8206H31.4146C29.5299 30.8206 28.002 32.3486 28.002 34.2333V58.4249C28.002 60.3096 29.5299 61.8375 31.4146 61.8375H67.6178C69.5025 61.8375 71.0305 60.3096 71.0305 58.4249V34.2367C71.0305 32.3519 69.5025 30.824 67.6178 30.824H65.5413" stroke="#666666" stroke-miterlimit="10"/>
<path d="M71.0339 53.2756H28.002" stroke="#666666" stroke-miterlimit="10"/>
<path d="M51.9545 39.6215L55.4917 42.2837C55.6263 42.3846 55.8182 42.3644 55.9292 42.2332L59.2241 38.3224L66.386 29.821C67.564 28.4243 67.2812 26.3175 65.7768 25.2809L65.0667 24.7929C63.7912 23.9145 62.0445 24.241 61.1761 25.5199L54.62 35.1622L51.8839 39.1874C51.7863 39.3287 51.8199 39.5206 51.9545 39.6215Z" stroke="#F68220" stroke-miterlimit="10"/>
<path d="M54.62 35.1622L59.2207 38.3258" stroke="#F68220" stroke-miterlimit="10"/>
<path d="M51.8839 39.1874C51.8839 39.1874 43.5138 38.4469 46.4889 49.4153C46.4889 49.4153 47.6601 47.7426 51.8267 48.3181C55.9932 48.8936 57.0096 44.0438 55.9259 42.2365" stroke="#F68220" stroke-miterlimit="10"/>
<path d="M40.4949 71.9981V70.5913C40.4949 69.3259 41.5214 68.2994 42.7868 68.2994H55.8653C57.1308 68.2994 58.1573 69.3259 58.1573 70.5913V71.9981" stroke="#666666" stroke-miterlimit="10"/>
<path d="M47.273 61.8409L45.8359 68.296" stroke="#666666" stroke-miterlimit="10"/>
<path d="M51.5137 61.8409L52.9474 68.296" stroke="#666666" stroke-miterlimit="10"/>
<path d="M62.2868 71.9981H36.1735" stroke="#666666" stroke-miterlimit="10"/>
</g>
<defs>
<clipPath id="clip0_449_1152">
<rect width="44.7147" height="49.3827" fill="white" transform="translate(27.1605 23.4568)"/>
</clipPath>
</defs>
</svg>
